<svg xmlns="http://www.w3.org/2000/svg" viewBox="0 0 496 496">
  <path d="M496 320.8c0 96.8-78.4 175.2-175.2 175.2H175.2C78.4 496 0 417.6 0 320.8V175.2C0 78.4 78.4 0 175.2 0h145.6C417.6 0 496 78.4 496 175.2v145.6z" fill="#1bceb8"/>
  <path d="M0 175.2C0 78.4 78.4 0 175.2 0h145.6C417.6 0 496 78.4 496 175.2v145.6c0 96.8-78.4 175.2-175.2 175.2" fill="#0dbfba"/>
  <g fill="#09adb5">
    <path d="M320.8 0C417.6 0 496 78.4 496 175.2v145.6c0 96.8-78.4 175.2-175.2 175.2"/>
    <path d="M349.6 164.8c-4.8-4.8-12-4.8-16.8 0s-4.8 12 0 16.8c22.4 22.4 35.2 52.8 35.2 84.8s-12.8 62.4-35.2 84.8c-22.4 22.4-52.8 35.2-84.8 35.2s-62.4-12.8-84.8-35.2C116 304 116 228 163.2 181.6c4.8-4.8 4.8-12 0-16.8s-12-4.8-16.8 0c-56 56-56 147.2 0 202.4 28 28 64.8 41.6 101.6 41.6s73.6-13.6 101.6-41.6c27.2-27.2 41.6-63.2 41.6-101.6 0-37.6-14.4-73.6-41.6-100.8z"/>
    <path d="M248 262.4c6.4 0 8-4.8 8-12V120c0-6.4-1.6-12-8-12s-8 5.6-8 12v130.4c0 6.4 1.6 12 8 12z"/>
  </g>
  <g fill="#fff">
    <path d="M349.6 146.4c-4.8-4.8-12-4.8-16.8 0s-4.8 12 0 16.8C356 185.6 368 216 368 248s-12.8 62.4-35.2 84.8C310.4 356 280 368 248 368s-62.4-12.8-84.8-35.2c-47.2-47.2-47.2-123.2 0-169.6 4.8-4.8 4.8-12 0-16.8s-12-4.8-16.8 0c-56 56-56 147.2 0 202.4 28 28 64.8 41.6 101.6 41.6s73.6-13.6 101.6-41.6c27.2-27.2 41.6-63.2 41.6-101.6 0-37.6-14.4-73.6-41.6-100.8z"/>
    <path d="M248 244c6.4 0 8-5.6 8-12V102.4c0-6.4-1.6-12-8-12s-8 4.8-8 12v130.4c0 6.4 1.6 11.2 8 11.2z"/>
  </g>
</svg>
