<?xml version="1.0" standalone="no"?>
<!DOCTYPE svg PUBLIC "-//W3C//DTD SVG 20010904//EN"
 "http://www.w3.org/TR/2001/REC-SVG-20010904/DTD/svg10.dtd">
<svg version="1.0" xmlns="http://www.w3.org/2000/svg"
 width="512.000000pt" height="512.000000pt" viewBox="0 0 512.000000 512.000000"
 preserveAspectRatio="xMidYMid meet">
<metadata>
Created by potrace 1.11, written by Peter Selinger 2001-2013
</metadata>
<g transform="translate(0.000000,512.000000) scale(0.100000,-0.100000)"
fill="#000000" stroke="none">
<path d="M1660 5113 c-447 -43 -823 -218 -1129 -524 -269 -270 -433 -586 -509
-984 -12 -67 -16 -223 -19 -935 -3 -539 0 -904 6 -987 51 -652 418 -1200 998
-1492 195 -97 429 -162 660 -181 65 -5 488 -10 940 -10 681 0 842 3 940 15
394 51 757 231 1042 516 285 285 465 648 516 1042 22 174 22 1800 0 1974 -51
394 -231 757 -516 1042 -285 285 -648 465 -1042 516 -99 13 -258 15 -985 13
-477 0 -883 -3 -902 -5z m933 -934 c14 -6 30 -22 36 -36 8 -17 11 -238 11
-744 0 -787 0 -781 -56 -795 -37 -9 -76 6 -91 36 -16 32 -19 1463 -3 1505 15
39 60 54 103 34z m-929 -555 c32 -22 56 -67 56 -105 0 -39 -13 -60 -96 -151
-228 -250 -343 -634 -290 -973 44 -289 165 -525 370 -723 238 -229 522 -344
851 -345 214 0 372 35 550 122 458 225 735 721 686 1228 -28 279 -124 499
-310 708 -95 106 -105 160 -41 223 59 59 125 47 203 -38 329 -354 460 -835
361 -1319 -92 -450 -408 -840 -839 -1034 -185 -83 -375 -121 -605 -121 -350 0
-638 96 -907 302 -308 237 -500 568 -563 972 -21 140 -8 397 29 540 56 215
146 400 276 564 130 167 193 202 269 150z"/>
</g>
</svg>
